<?xml version="1.0" standalone="no"?>
<!DOCTYPE svg PUBLIC "-//W3C//DTD SVG 20010904//EN"
 "http://www.w3.org/TR/2001/REC-SVG-20010904/DTD/svg10.dtd">
<svg version="1.0" xmlns="http://www.w3.org/2000/svg"
 width="512.000000pt" height="512.000000pt" viewBox="0 0 512.000000 512.000000"
 preserveAspectRatio="xMidYMid meet">
<metadata>
Created by potrace 1.16, written by Peter Selinger 2001-2019
</metadata>
<g transform="translate(0.000000,512.000000) scale(0.100000,-0.100000)"
fill="#000000" stroke="none">
<path d="M4245 5103 c-69 -25 -138 -75 -185 -134 -39 -50 -80 -142 -80 -182 0
-12 -3 -32 -6 -43 -6 -21 -6 -21 -81 8 -106 41 -277 84 -413 104 -140 20 -457
15 -589 -10 -475 -89 -875 -328 -1167 -697 -87 -109 -107 -145 -107 -191 0
-31 7 -46 29 -68 31 -30 2978 -1982 3030 -2008 40 -19 94 -10 121 21 57 63
169 285 223 443 69 201 91 328 97 564 4 160 2 230 -11 320 -42 291 -150 573
-307 806 -54 80 -178 231 -227 278 l-30 28 61 42 c76 51 130 121 158 205 31
92 24 222 -16 306 -37 77 -113 153 -190 190 -51 25 -74 29 -160 32 -77 3 -111
-1 -150 -14z m231 -218 c168 -98 97 -355 -97 -355 -122 1 -219 118 -189 228
35 132 174 193 286 127z m-921 -254 c225 -49 466 -155 655 -289 115 -82 295
-259 373 -369 168 -236 273 -492 313 -767 13 -85 15 -154 11 -296 -6 -201 -20
-286 -77 -465 -34 -105 -120 -297 -138 -309 -9 -5 -2770 1810 -2809 1848 -17
15 105 157 218 255 249 216 543 354 865 406 135 22 458 14 589 -14z"/>
<path d="M1898 2341 c-299 -98 -426 -485 -249 -759 56 -86 147 -171 366 -341
105 -82 226 -178 270 -215 72 -60 83 -66 125 -66 42 0 53 6 125 66 44 37 136
110 205 162 304 234 394 316 455 417 50 83 67 149 66 258 0 231 -129 414 -339
482 -41 13 -78 16 -156 13 -92 -3 -109 -7 -170 -37 -42 -20 -91 -56 -126 -91
l-57 -57 -57 58 c-35 36 -82 71 -123 91 -61 30 -76 33 -173 35 -81 2 -118 -1
-162 -16z m240 -210 c70 -36 146 -137 167 -223 19 -77 123 -107 179 -52 14 15
26 31 26 36 0 26 63 138 100 175 58 61 107 83 180 83 77 0 137 -28 190 -87 48
-55 71 -122 71 -207 0 -121 -58 -201 -259 -357 -59 -46 -169 -132 -245 -191
l-137 -108 -73 59 c-39 32 -144 114 -232 183 -259 203 -325 287 -325 415 0
119 61 226 154 269 65 30 151 32 204 5z"/>
<path d="M26 774 c-37 -37 -37 -110 -1 -147 25 -25 28 -25 223 -29 167 -3 202
-7 232 -22 79 -41 106 -89 119 -210 18 -152 97 -268 226 -332 l60 -29 561 -3
561 -3 25 26 c44 44 44 106 1 149 l-25 25 -526 3 -527 3 -47 28 c-63 37 -94
92 -104 182 -6 64 -19 121 -39 168 -7 16 75 17 1644 17 908 0 1651 -2 1651 -5
0 -3 -7 -22 -16 -43 -8 -20 -20 -75 -26 -122 -14 -120 -39 -164 -113 -204 -39
-21 -50 -21 -567 -24 l-526 -3 -26 -26 c-37 -37 -37 -109 1 -147 l26 -27 561
3 561 3 60 29 c33 17 83 53 111 80 70 70 102 141 116 255 14 112 44 168 110
203 39 20 59 23 240 26 193 4 198 5 222 28 42 43 42 106 -1 149 l-26 25 -2357
0 -2357 0 -27 -26z"/>
<path d="M2336 174 c-21 -21 -26 -36 -26 -74 0 -66 34 -100 100 -100 72 0 116
53 102 125 -14 73 -121 103 -176 49z"/>
</g>
</svg>
